<svg width="32" height="21" viewBox="0 0 32 21" fill="none" xmlns="http://www.w3.org/2000/svg">
<path d="M12.2047 13.6621L12.9971 14.2107C12.8291 14.4534 12.5592 14.6057 12.2646 14.6241C11.97 14.6424 11.6832 14.5248 11.4864 14.3048L12.2047 13.6621ZM17.9876 5.30891L17.1952 4.76029C17.3622 4.51901 17.6301 4.36697 17.9229 4.34726C18.2157 4.32755 18.5015 4.44231 18.6994 4.65903L17.9876 5.30891ZM31.4813 20.0876L20.873 16.722L29.0919 9.21781L31.4813 20.0876ZM1.99954 0.810916L12.9229 13.0194L11.4864 14.3048L0.562964 2.09627L1.99954 0.810916ZM11.4122 13.1135L17.1952 4.76029L18.7801 5.85754L12.9971 14.2107L11.4122 13.1135ZM18.6994 4.65903L26.3441 13.0318L24.9206 14.3316L17.2759 5.9588L18.6994 4.65903Z" fill="#E74911"/>
</svg>
